<?xml version="1.0" encoding="UTF-8"?>
<svg width="1200" height="1200" viewBox="0 0 1200 1200" xmlns="http://www.w3.org/2000/svg">
  <defs>
    <filter id="shadow" x="-20%" y="-20%" width="140%" height="140%">
      <feGaussianBlur in="SourceAlpha" stdDeviation="5"/>
      <feOffset dx="4" dy="4"/>
      <feComponentTransfer>
        <feFuncA type="linear" slope="0.3"/>
      </feComponentTransfer>
      <feMerge>
        <feMergeNode/>
        <feMergeNode in="SourceGraphic"/>
      </feMerge>
    </filter>
  </defs>
  
  <!-- Letter M -->
  <path d="M 300 300 L 400 300 L 500 600 L 600 300 L 700 300 L 700 700 L 600 700 L 600 500 L 500 700 L 400 500 L 400 700 L 300 700 Z" 
        fill="#000000" filter="url(#shadow)"/>
  
  <!-- Arrow -->
  <path d="M 550 400 L 700 500 L 550 600 L 550 550 L 450 550 L 450 450 L 550 450 Z" 
        fill="#00ff00" filter="url(#shadow)"/>
  
  <!-- Letter E -->
  <path d="M 720 300 L 900 300 L 900 400 L 820 400 L 820 450 L 870 450 L 870 550 L 820 550 L 820 600 L 900 600 L 900 700 L 720 700 Z" 
        fill="#ffffff" filter="url(#shadow)"/>
</svg>
